<svg width="20" height="25" viewBox="0 0 20 25" fill="none" xmlns="http://www.w3.org/2000/svg">
<path d="M19.7132 0C19.6695 0.0303227 16.9887 1.29539 11.0374 5.02144L12.4427 24.8161L14.354 5.91293L19.7132 0Z" fill="white"/>
<path d="M19.2632 4.82062C19.2382 4.83881 18.3638 5.18449 15.3469 6.34886L14.9534 14.0266L16.4337 6.96744L19.2632 4.82062Z" fill="white"/>
<path d="M2.86102e-05 0C0.0437517 0.0303227 2.72459 1.29539 8.6759 5.02144L7.27052 24.8161L5.35921 5.91293L2.86102e-05 0Z" fill="white"/>
<path d="M0.450058 4.82062C0.475042 4.83881 1.3495 5.18449 4.36638 6.34886L4.75989 14.0266L3.27955 6.96744L0.450058 4.82062Z" fill="white"/>
</svg>
