<svg width="26" height="24" viewBox="0 0 26 24" fill="none" xmlns="http://www.w3.org/2000/svg">
<path d="M25.0127 0L14.0254 8.12986L16.0686 3.3387L25.0127 0Z" fill="#E17726"/>
<path d="M0.619354 0.00854492L9.5396 3.33825L11.4797 8.19221L0.619354 0.00854492ZM20.5911 17.2889L25.4473 17.3813L23.7501 23.1469L17.8244 21.5154L20.5911 17.2889ZM5.01521 17.2889L7.77157 21.5154L1.85585 23.147L0.168945 17.3813L5.01521 17.2889Z" fill="#E27625"/>
<path d="M11.2157 6.95726L11.4141 13.3671L5.47559 13.0969L7.16479 10.5485L7.1862 10.524L11.2157 6.95726ZM14.3287 6.88574L18.4197 10.5242L18.4409 10.5486L20.1301 13.097L14.1929 13.3671L14.3287 6.88574ZM7.94528 17.309L11.1879 19.8355L7.42115 21.654L7.94528 17.309ZM17.6612 17.3085L18.1744 21.6541L14.4182 19.8353L17.6612 17.3085Z" fill="#E27625"/>
<path d="M14.5016 19.5967L18.3133 21.4423L14.7677 23.1273L14.8045 22.0137L14.5016 19.5967ZM11.1041 19.5975L10.8132 21.9955L10.8371 23.126L7.2832 21.4423L11.1041 19.5975Z" fill="#D5BFB2"/>
<path d="M10.0035 14.2021L10.9995 16.2955L7.6084 15.302L10.0035 14.2021ZM15.6033 14.2023L18.0097 15.302L14.6075 16.2952L15.6033 14.2023Z" fill="#233447"/>
<path d="M8.20391 17.2886L7.65578 21.7937L4.71777 17.3872L8.20391 17.2886ZM17.4011 17.2887L20.8874 17.3872L17.9384 21.7939L17.4011 17.2887ZM20.2154 12.8433L17.6783 15.429L15.7221 14.5351L14.7856 16.5039L14.1716 13.1182L20.2154 12.8433ZM5.38813 12.8433L11.4331 13.1182L10.819 16.5039L9.88232 14.5354L7.93655 15.4291L5.38813 12.8433Z" fill="#CC6228"/>
<path d="M5.21777 12.3121L8.08826 15.2249L8.18769 18.1005L5.21777 12.3121ZM20.3911 12.3069L17.4158 18.1056L17.5278 15.2249L20.3911 12.3069ZM11.2933 12.4895L11.4089 13.2167L11.6943 15.0282L11.5108 20.5921L10.6431 16.1225L10.6428 16.0763L11.2933 12.4895ZM14.3112 12.4794L14.9634 16.0763L14.9631 16.1225L14.0932 20.6033L14.0588 19.4825L13.9231 14.9952L14.3112 12.4794Z" fill="#E27525"/>
<path d="M17.7835 15.1094L17.6864 17.6078L14.6582 19.967L14.0461 19.5345L14.7322 16.0002L17.7835 15.1094ZM7.83398 15.1094L10.8746 16.0002L11.5608 19.5345L10.9486 19.967L7.92041 17.6076L7.83398 15.1094Z" fill="#F5841F"/>
<path d="M6.70312 20.8918L10.5773 22.7275L10.5609 21.9436L10.885 21.659H14.7194L15.0552 21.9426L15.0304 22.7259L18.8801 20.8964L17.0068 22.4444L14.7418 24.0001H10.8539L8.59038 22.438L6.70312 20.8918Z" fill="#C0AC9D"/>
<path d="M14.2244 19.3511L14.7721 19.7381L15.0931 22.2991L14.6286 21.9069H10.9801L10.5244 22.307L10.8349 19.7383L11.3828 19.3511H14.2244Z" fill="#161616"/>
<path d="M24.2872 0.224854L25.6062 4.1815L24.7825 8.18217L25.369 8.63458L24.5753 9.24012L25.1719 9.70083L24.382 10.4201L24.8669 10.7713L23.58 12.2743L18.3017 10.7374L18.256 10.7129L14.4524 7.5043L24.2872 0.224854ZM1.31892 0.224854L11.1539 7.5043L7.35017 10.7129L7.30446 10.7374L2.02619 12.2743L0.739278 10.7713L1.22379 10.4204L0.434405 9.70083L1.02975 9.24062L0.224154 8.63338L0.8328 8.18067L0 4.1817L1.31892 0.224854Z" fill="#763E1A"/>
<path d="M18.0435 10.4013L23.6361 12.0296L25.4531 17.6295H20.6595L17.3567 17.6711L19.7587 12.9892L18.0435 10.4013ZM7.56257 10.4013L5.84705 12.9892L8.24933 17.6711L4.94804 17.6295H0.163086L1.96982 12.0297L7.56257 10.4013ZM16.3423 3.31177L14.778 7.53668L14.446 13.2441L14.319 15.033L14.3089 19.6029H11.2971L11.2873 15.0416L11.1598 13.2426L10.8278 7.53668L9.26367 3.31177H16.3423Z" fill="#F5841F"/>
</svg>
